HIERARCHY
ROOT joint_Root
{
	OFFSET 0.0 0.0 0.0
	CHANNELS 6 Xposition Yposition Zposition Zrotation Xrotation Yrotation 
	JOINT Hips
	{
		OFFSET -17.1583 93.1646 452.98
		CHANNELS 6 Xposition Yposition Zposition Zrotation Xrotation Yrotation 
		JOINT Spine
		{
			OFFSET 15.7357 0.0 0.0
			CHANNELS 6 Xposition Yposition Zposition Zrotation Xrotation Yrotation 
			JOINT Chest
			{
				OFFSET 8.98455 -0.406207 0.0
				CHANNELS 6 Xposition Yposition Zposition Zrotation Xrotation Yrotation 
				JOINT Neck
				{
					OFFSET 16.3773 0.0 0.0
					CHANNELS 6 Xposition Yposition Zposition Zrotation Xrotation Yrotation 
					JOINT Head
					{
						OFFSET 6.45672 0.0 0.0
						CHANNELS 6 Xposition Yposition Zposition Zrotation Xrotation Yrotation 
						End Site
						{
							OFFSET 0.0 0.0 0.0
						}
					}
				}
				JOINT Shoulder_L
				{
					OFFSET 12.9942 -0.242716 4.98039
					CHANNELS 6 Xposition Yposition Zposition Zrotation Xrotation Yrotation 
					JOINT UpperArm_L
					{
						OFFSET 5.34809 0.0 0.0
						CHANNELS 6 Xposition Yposition Zposition Zrotation Xrotation Yrotation 
						JOINT LowerArm_L
						{
							OFFSET 24.3286 1.87007e-05 0.0
							CHANNELS 6 Xposition Yposition Zposition Zrotation Xrotation Yrotation 
							JOINT Hand_L
							{
								OFFSET 22.2916 0.0 0.0
								CHANNELS 6 Xposition Yposition Zposition Zrotation Xrotation Yrotation 
								End Site
								{
									OFFSET 0.0 0.0 0.0
								}
							}
						}
					}
				}
				JOINT Shoulder_R
				{
					OFFSET 12.9945 -0.242716 -4.98039
					CHANNELS 6 Xposition Yposition Zposition Zrotation Xrotation Yrotation 
					JOINT UpperArm_R
					{
						OFFSET -5.34813 0.0 0.0
						CHANNELS 6 Xposition Yposition Zposition Zrotation Xrotation Yrotation 
						JOINT LowerArm_R
						{
							OFFSET -24.3289 0.000322201 0.0
							CHANNELS 6 Xposition Yposition Zposition Zrotation Xrotation Yrotation 
							JOINT Hand_R
							{
								OFFSET -22.2915 -0.000108084 0.0
								CHANNELS 6 Xposition Yposition Zposition Zrotation Xrotation Yrotation 
								End Site
								{
									OFFSET 0.0 0.0 0.0
								}
							}
						}
					}
				}
			}
		}
		JOINT UpperLeg_L
		{
			OFFSET -2.19248 -6.46944 0.0
			CHANNELS 6 Xposition Yposition Zposition Zrotation Xrotation Yrotation 
			JOINT LowerLeg_L
			{
				OFFSET 39.0811 0.0 -1.23785e-05
				CHANNELS 6 Xposition Yposition Zposition Zrotation Xrotation Yrotation 
				JOINT Foot_L
				{
					OFFSET 40.9854 0.0 -1.26872e-05
					CHANNELS 6 Xposition Yposition Zposition Zrotation Xrotation Yrotation 
					JOINT Toes_L
					{
						OFFSET 11.7543 0.0 0.0
						CHANNELS 6 Xposition Yposition Zposition Zrotation Xrotation Yrotation 
						End Site
						{
							OFFSET 0.0 0.0 0.0
						}
					}
				}
			}
		}
		JOINT UpperLeg_R
		{
			OFFSET -2.19251 6.46944 0.0
			CHANNELS 6 Xposition Yposition Zposition Zrotation Xrotation Yrotation 
			JOINT LowerLeg_R
			{
				OFFSET -39.0811 -0.00228153 -0.0401928
				CHANNELS 6 Xposition Yposition Zposition Zrotation Xrotation Yrotation 
				JOINT Foot_R
				{
					OFFSET -40.9854 0.0 0.0
					CHANNELS 6 Xposition Yposition Zposition Zrotation Xrotation Yrotation 
					JOINT Toes_R
					{
						OFFSET -11.7543 0.0 0.0
						CHANNELS 6 Xposition Yposition Zposition Zrotation Xrotation Yrotation 
						End Site
						{
							OFFSET 0.0 0.0 0.0
						}
					}
				}
			}
		}
	}
}
MOTION
Frames:	8
Frame Time:	0.0333333
0.000000 0.000000 0.000000 0.000000 0.000000 -0.000000 -1.042330 92.521200 -1.374060 85.347000 -1.372120 2.650300 15.735700 0.000005 -0.000001 80.951400 87.285200 -78.431400 8.984550 -0.406207 -0.000000 -2.375470 -1.076540 5.017480 16.377300 -0.000001 -0.000001 7.640980 4.112880 -0.272273 6.456720 -0.000001 -0.000000 6.867090 5.623830 -6.425800 12.994200 -0.242716 4.980390 -92.726600 8.399390 -71.942400 5.348090 -0.000007 -0.000001 -73.555600 29.491300 1.895960 24.328600 0.000019 0.000005 13.116300 28.413600 -26.090100 22.291600 -0.000001 0.000005 -4.670170 5.053440 6.161220 12.994500 -0.242716 -4.980390 88.719100 4.214010 -73.075700 -5.348130 -0.000001 -0.000004 -70.917900 24.499100 -3.574660 -24.328900 0.000322 -0.000009 2.145900 6.039770 -19.610500 -22.291500 -0.000108 -0.000004 0.479749 5.269920 0.901169 -2.192480 -6.469440 -0.000000 -174.674000 -0.134033 -3.937240 39.081100 -0.000007 -0.000012 0.298003 -0.650132 24.626100 40.985400 -0.000006 -0.000013 2.224320 7.479060 -73.685900 11.754300 -0.000000 0.000003 0.000465 0.159397 -10.112100 -2.192510 6.469440 -0.000001 -172.846000 6.597620 -177.911000 -39.081100 -0.002282 -0.040193 0.078313 -0.296961 14.170800 -40.985400 0.000008 0.000006 2.781230 2.471030 -69.589400 -11.754300 -0.000006 -0.000006 -0.010757 0.276874 -5.323160
0.000000 0.000000 0.000000 0.000000 0.000000 -0.000000 -1.040350 92.538500 -1.445640 85.341500 -1.323820 2.552220 15.735700 0.000005 -0.000001 80.905400 87.275600 -78.373800 8.984550 -0.406207 -0.000000 -2.356920 -1.084490 5.040680 16.377300 -0.000001 -0.000001 7.566460 4.053730 -0.140792 6.456720 -0.000001 -0.000000 6.558980 5.607260 -6.380100 12.994200 -0.242716 4.980390 -92.716700 8.368770 -71.942600 5.348090 -0.000007 -0.000001 -73.605100 29.450600 1.881130 24.328600 0.000019 0.000005 13.152900 28.426100 -26.146300 22.291600 -0.000001 0.000005 -4.607690 5.049780 6.242020 12.994500 -0.242716 -4.980390 88.709000 4.217290 -72.962400 -5.348130 -0.000001 -0.000004 -69.887900 23.271600 -3.869010 -24.328900 0.000322 -0.000009 2.334430 6.332620 -20.292300 -22.291500 -0.000108 -0.000004 -0.497160 5.265460 1.020320 -2.192480 -6.469440 -0.000000 -174.678000 -0.098271 -4.067590 39.081100 -0.000007 -0.000012 0.299522 -0.654795 24.581400 40.985400 -0.000006 -0.000013 2.208330 7.450900 -73.668200 11.754300 -0.000000 0.000003 0.000365 0.161233 -10.037600 -2.192510 6.469440 -0.000001 -172.821000 6.534770 -178.028000 -39.081100 -0.002282 -0.040193 0.076020 -0.289366 14.100800 -40.985400 0.000008 0.000006 2.666470 2.357370 -69.495800 -11.754300 -0.000006 -0.000006 -0.011017 0.278754 -5.246220
0.000000 0.000000 0.000000 0.000000 0.000000 -0.000000 -1.036020 92.543600 -1.529860 85.312300 -1.254190 2.467640 15.735700 0.000005 -0.000001 80.747000 87.266500 -78.201100 8.984550 -0.406207 -0.000000 -2.340760 -1.103180 5.069120 16.377300 -0.000001 -0.000001 7.359470 4.005790 0.019687 6.456720 -0.000001 -0.000000 6.278880 5.609900 -6.150100 12.994200 -0.242716 4.980390 -92.707600 8.346860 -71.955300 5.348090 -0.000007 -0.000001 -73.611900 29.379800 1.850550 24.328600 0.000019 0.000005 13.095700 28.349400 -26.100200 22.291600 -0.000001 0.000005 -4.528190 5.053680 6.156020 12.994500 -0.242716 -4.980390 88.700600 4.218310 -72.862200 -5.348130 -0.000001 -0.000004 -68.675000 21.417100 -4.065250 -24.328900 0.000322 -0.000009 2.411820 6.196070 -21.326800 -22.291500 -0.000108 -0.000004 -1.279870 5.257820 1.225710 -2.192480 -6.469440 -0.000000 -174.656000 0.013935 -4.247580 39.081100 -0.000007 -0.000012 0.300593 -0.655846 24.624000 40.985400 -0.000006 -0.000013 2.198860 7.430550 -73.587800 11.754300 -0.000000 0.000003 0.000595 0.156929 -10.212300 -2.192510 6.469440 -0.000001 -172.759000 6.505580 -178.175000 -39.081100 -0.002282 -0.040193 0.076688 -0.292303 14.088000 -40.985400 0.000008 0.000006 2.725200 2.285120 -69.445800 -11.754300 -0.000006 -0.000006 -0.010815 0.277295 -5.305930
0.000000 0.000000 0.000000 0.000000 0.000000 -0.000000 -1.015120 92.561200 -1.598070 85.305700 -1.198350 2.401050 15.735700 0.000005 -0.000001 80.736300 87.235000 -78.183700 8.984550 -0.406207 -0.000000 -2.278350 -1.113550 5.082780 16.377300 -0.000001 -0.000001 7.158370 3.931950 0.214426 6.456720 -0.000001 -0.000000 5.793620 5.620980 -5.854870 12.994200 -0.242716 4.980390 -92.702400 8.321280 -71.936600 5.348090 -0.000007 -0.000001 -73.606100 29.392600 1.807080 24.328600 0.000019 0.000005 13.138900 28.361900 -26.168300 22.291600 -0.000001 0.000005 -4.601780 5.050620 6.223510 12.994500 -0.242716 -4.980390 88.691000 4.220320 -72.750400 -5.348130 -0.000001 -0.000004 -67.335000 18.785300 -4.211610 -24.328900 0.000322 -0.000009 2.506930 5.957590 -22.879900 -22.291500 -0.000108 -0.000004 -1.975070 5.231880 1.907640 -2.192480 -6.469440 -0.000000 -174.666000 0.058317 -4.348260 39.081100 -0.000007 -0.000012 0.297430 -0.650611 24.568400 40.985400 -0.000006 -0.000013 2.198970 7.413310 -73.512400 11.754300 -0.000000 0.000003 0.000628 0.156283 -10.238600 -2.192510 6.469440 -0.000001 -172.766000 6.543880 -178.254000 -39.081100 -0.002282 -0.040193 0.074317 -0.284573 14.006300 -40.985400 0.000008 0.000006 2.673340 2.284930 -69.376200 -11.754300 -0.000006 -0.000006 -0.011169 0.279841 -5.201710
0.000000 0.000000 0.000000 0.000000 0.000000 -0.000000 -0.996776 92.569500 -1.667300 85.313800 -1.059100 2.333120 15.735700 0.000005 -0.000001 80.434800 87.198500 -77.884200 8.984550 -0.406207 -0.000000 -2.210370 -1.152690 5.078690 16.377300 -0.000001 -0.000001 6.951580 3.845480 0.434762 6.456720 -0.000001 -0.000000 5.020420 5.635010 -5.435420 12.994200 -0.242716 4.980390 -92.715100 8.332030 -71.879100 5.348090 -0.000007 -0.000001 -73.515000 29.448400 1.711960 24.328600 0.000019 0.000005 12.988100 28.051900 -26.126000 22.291600 -0.000001 0.000005 -4.437070 5.046590 6.312250 12.994500 -0.242716 -4.980390 88.664200 4.247060 -72.522100 -5.348130 -0.000001 -0.000004 -65.939200 15.321700 -4.137840 -24.328900 0.000322 -0.000009 2.574060 5.426540 -25.436300 -22.291500 -0.000108 -0.000004 -2.568010 5.182900 3.146050 -2.192480 -6.469440 -0.000000 -174.682000 0.122971 -4.499930 39.081100 -0.000007 -0.000012 0.298573 -0.652836 24.577500 40.985400 -0.000006 -0.000013 2.213970 7.473900 -73.478300 11.754300 -0.000000 0.000003 0.000440 0.159858 -10.093400 -2.192510 6.469440 -0.000001 -172.750000 6.577020 -178.368000 -39.081100 -0.002282 -0.040193 0.075345 -0.289422 13.972500 -40.985400 0.000008 0.000006 2.738270 2.189230 -69.328500 -11.754300 -0.000006 -0.000006 -0.011056 0.279031 -5.234880
0.000000 0.000000 0.000000 0.000000 0.000000 -0.000000 -0.976055 92.590400 -1.756470 85.304300 -1.030090 2.221290 15.735700 0.000005 -0.000001 80.647300 87.154700 -78.090100 8.984550 -0.406207 -0.000000 -2.120490 -1.145020 5.092590 16.377300 -0.000001 -0.000001 6.702490 3.817280 0.693567 6.456720 -0.000001 -0.000000 3.946130 5.827160 -4.894300 12.994200 -0.242716 4.980390 -92.738700 8.354290 -71.777000 5.348090 -0.000007 -0.000001 -73.395700 29.350800 1.575430 24.328600 0.000019 0.000005 13.075600 28.185900 -26.184500 22.291600 -0.000001 0.000005 -4.397520 5.047250 6.297760 12.994500 -0.242716 -4.980390 88.605100 4.359120 -72.236300 -5.348130 -0.000001 -0.000004 -64.538700 10.741900 -3.956140 -24.328900 0.000322 -0.000009 2.422580 4.382740 -28.987500 -22.291500 -0.000108 -0.000004 -3.346720 5.124370 4.550250 -2.192480 -6.469440 -0.000000 -174.688000 0.138382 -4.650330 39.081100 -0.000007 -0.000012 0.295707 -0.648578 24.510400 40.985400 -0.000006 -0.000013 2.221900 7.487950 -73.376200 11.754300 -0.000000 0.000003 0.000497 0.158782 -10.137100 -2.192510 6.469440 -0.000001 -172.753000 6.541710 -178.527000 -39.081100 -0.002282 -0.040193 0.071701 -0.275601 13.932300 -40.985400 0.000008 0.000006 2.521480 2.174150 -69.194100 -11.754300 -0.000006 -0.000006 -0.010891 0.277848 -5.283280
0.000000 0.000000 0.000000 0.000000 0.000000 -0.000000 -0.959716 92.608100 -1.848730 85.278500 -0.949450 2.143330 15.735700 0.000005 -0.000001 80.140700 87.089800 -77.557900 8.984550 -0.406207 -0.000000 -1.999090 -1.216310 5.143680 16.377300 -0.000001 -0.000001 6.527650 3.918440 0.987600 6.456720 -0.000001 -0.000000 2.569370 6.291440 -4.237110 12.994200 -0.242716 4.980390 -92.776500 8.417620 -71.670300 5.348090 -0.000007 -0.000001 -73.272200 29.276700 1.549690 24.328600 0.000019 0.000005 13.149500 28.097500 -26.382800 22.291600 -0.000001 0.000005 -4.454900 5.040620 6.443190 12.994500 -0.242716 -4.980390 88.539400 4.480790 -71.924800 -5.348130 -0.000001 -0.000004 -63.317800 5.379970 -3.658110 -24.328900 0.000322 -0.000009 1.896340 2.859890 -33.597200 -22.291500 -0.000108 -0.000004 -3.270680 5.076000 5.657020 -2.192480 -6.469440 -0.000000 -174.675000 0.218076 -4.795800 39.081100 -0.000007 -0.000012 0.293610 -0.644774 24.483700 40.985400 -0.000006 -0.000013 2.212500 7.460560 -73.304400 11.754300 -0.000000 0.000003 0.000495 0.158823 -10.135400 -2.192510 6.469440 -0.000001 -172.718000 6.449900 -178.663000 -39.081100 -0.002282 -0.040193 0.069972 -0.269280 13.900000 -40.985400 0.000008 0.000006 2.371420 2.078770 -69.139300 -11.754300 -0.000006 -0.000006 -0.011169 0.279844 -5.201610
0.000000 0.000000 0.000000 0.000000 0.000000 -0.000000 -0.937234 92.621000 -1.927830 85.295000 -0.982613 2.068470 15.735700 0.000005 -0.000001 79.709200 87.006200 -77.101600 8.984550 -0.406207 -0.000000 -1.840340 -1.287810 5.193660 16.377300 -0.000001 -0.000001 6.254170 4.196960 1.390030 6.456720 -0.000001 -0.000000 1.150120 7.082830 -3.513970 12.994200 -0.242716 4.980390 -92.792500 8.426230 -71.589000 5.348090 -0.000007 -0.000001 -73.252600 29.243700 1.498370 24.328600 0.000019 0.000005 13.115800 28.104200 -26.317200 22.291600 -0.000001 0.000005 -4.398390 5.050740 6.220860 12.994500 -0.242716 -4.980390 88.523500 4.457800 -71.653300 -5.348130 -0.000001 -0.000004 -62.463000 -0.065177 -3.487760 -24.328900 0.000322 -0.000009 1.456140 1.801090 -38.992600 -22.291500 -0.000108 -0.000004 -2.004800 5.053430 6.158590 -2.192480 -6.469440 -0.000000 -174.718000 0.273920 -4.904100 39.081100 -0.000007 -0.000012 0.291447 -0.641573 24.431400 40.985400 -0.000006 -0.000013 2.200850 7.370900 -73.175100 11.754300 -0.000000 0.000003 0.000590 0.157022 -10.208500 -2.192510 6.469440 -0.000001 -172.745000 6.446720 -178.802000 -39.081100 -0.002282 -0.040193 0.069308 -0.266547 13.902500 -40.985400 0.000008 0.000006 2.335560 2.125710 -69.032100 -11.754300 -0.000006 -0.000006 -0.010947 0.278247 -5.266950
